M48
;GenerationSoftware,Autodesk,EAGLE,9.6.2*%
;CreationDate,2021-05-08T11:15:56Z*%
FMAT,2
ICI,OFF
METRIC,TZ,000.000
T9C0.300
T8C0.350
T7C0.700
T6C0.813
T5C0.900
T4C1.000
T3C1.016
T2C1.300
T1C3.200
%
G90
M71
T1
X94996Y71501
X4572Y32258
X95250Y32258
X4572Y71755
T2
X10830Y54737
X10830Y46237
X8450Y10195
X16165Y94150
X16165Y81950
X4165Y81950
X4165Y94150
X10830Y63237
X10165Y96150
X26230Y89500
X34730Y89500
X16950Y10195
T3
X31496Y31750
X15240Y69215
X17145Y14732
X17145Y37592
X38100Y69215
X42799Y2413
X60452Y96774
X62992Y96774
X31496Y26670
X28956Y26670
X31496Y29210
X28956Y29210
X28956Y31750
X57912Y96774
X55499Y2413
X52959Y2413
X50419Y2413
X47879Y2413
X45339Y2413
T4
X34163Y3256
X89327Y56896
X89327Y61976
X89327Y64516
X96566Y42926
X96566Y45466
X96566Y48006
X96566Y50546
X89454Y42672
X89454Y45212
X89454Y47752
X89454Y50292
X89454Y52832
X27686Y3256
X25146Y3256
X96566Y64643
X96566Y62103
X96566Y59563
X96566Y57023
X43180Y96220
X96566Y54483
X45720Y96220
X96566Y12573
X66040Y4046
X68580Y4046
X59436Y4046
X96566Y15113
X61976Y4046
X96566Y8382
X96566Y5842
X89327Y59436
X96566Y19304
X96566Y21844
X31623Y3256
T5
X80137Y90464
X80137Y95464
X79756Y27992
X79756Y34492
T6
X97028Y91059
X97028Y93599
X41148Y70612
X70993Y12446
X70993Y9906
X78613Y9906
X78613Y12446
X70866Y18288
X70866Y15748
X78486Y15748
X78486Y18288
X83058Y13716
X84328Y11811
X85598Y13716
X22352Y85344
X20447Y84074
X22352Y82804
X71120Y32512
X69215Y31242
X71120Y29972
X45720Y70612
X47625Y71882
X45720Y73152
X50800Y64770
X52705Y66040
X43053Y71882
X41148Y73152
X41148Y64770
X43053Y66040
X41148Y67310
X45720Y64770
X47625Y66040
X45720Y67310
X50800Y70612
X52705Y71882
X50800Y73152
X82804Y20828
X84074Y18923
X85344Y20828
X61976Y88519
X72009Y94869
X59436Y88519
X72009Y97409
X72009Y91313
X72009Y88773
X50800Y67310
T7
X95944Y82593
X95944Y78443
X48895Y15621
X43815Y15621
T8
X53340Y5690
X58318Y5842
X55067Y61874
X55270Y89306
X84988Y94590
X73965Y74476
X34696Y60706
X74727Y57099
X53035Y41707
X63094Y31598
X57048Y30531
X38710Y27889
X32918Y37338
X26365Y43840
X26416Y38252
X24689Y35103
X47955Y17831
X34138Y12852
X41910Y9754
X47803Y9906
X32258Y12802
X53950Y47752
X54254Y54610
X46177Y35560
X41707Y51410
X42215Y49632
X93523Y81585
X65735Y56032
T9
X84938Y45161
X58928Y63627
X58801Y62103
X58069Y63469
X57531Y62103
X51918Y25654
X56286Y18740
X54966Y10770
X51895Y10617
X52753Y26033
X56868Y19456
X55649Y10239
X51895Y9550
X53612Y26213
X57727Y19660
X52019Y8636
X56337Y9550
X54559Y26213
X58586Y19710
X57201Y9180
X52047Y7777
X52582Y7098
X57912Y8585
X59445Y19507
X48999Y29718
X38760Y40399
X42870Y33376
X39654Y39705
X42012Y33376
X27788Y24587
X51526Y33223
X51556Y34737
X75590Y51460
X77927Y51003
X50833Y33815
X50894Y35400
X52685Y36904
X73152Y66190
X57048Y35865
X77978Y51918
X74524Y50929
X84938Y55169
X76454Y57912
X61722Y74168
X72339Y74168
X78638Y83820
X46857Y37791
X59334Y40880
X46177Y37135
X58328Y41088
X38557Y29921
X45212Y29769
X46681Y22744
X52047Y17780
X56185Y17882
X48072Y36577
X59334Y39162
X91186Y47904
X87224Y47350
X47464Y37184
X59334Y40021
X87224Y48209
X91135Y48819
X37098Y33985
X38608Y37890
X49682Y42136
X61320Y44399
X37957Y33884
X38763Y37031
X50648Y42108
X60739Y43531
X38816Y33985
X39324Y36378
X50749Y41250
X60503Y42672
X35381Y34036
X37694Y38959
X49682Y43854
X62942Y45415
X36240Y33985
X37744Y38100
X49718Y42995
X62091Y44995
X40589Y34087
X40437Y35509
X46888Y40668
X46939Y43688
X49814Y61184
X54176Y61214
X56231Y61117
X58494Y59048
X41448Y34036
X41300Y35611
X47752Y40668
X47798Y43632
X48679Y35969
X59233Y38303
X43231Y19863
X46279Y17780
X52019Y13360
X54458Y11532
X39675Y34087
X39370Y35509
X35814Y45720
X19050Y77978
X49886Y34747
X57861Y37186
X79604Y49710
X81534Y52578
X49202Y35278
X58572Y37694
X68986Y49936
X69190Y52398
X34493Y33985
X49733Y44713
X37795Y39818
X63421Y46150
X57277Y64389
X59817Y63754
X59944Y71247
X62713Y71907
X77470Y79301
X80719Y78740
X24892Y49073
X23876Y38964
X14224Y17170
X12954Y13614
X33604Y59512
X34417Y62992
X56642Y68123
X60960Y68707
X25095Y38252
X26365Y49073
X25908Y33528
X32131Y36195
X32548Y35397
X26670Y32893
X62027Y70206
X58657Y70071
X69647Y67920
X71938Y64816
X58928Y60757
X56185Y64364
X55626Y67412
X55524Y68732
X59944Y24338
X55100Y27989
X56439Y28499
X59842Y25197
X44544Y26306
X42469Y24892
X73050Y64668
M30