G04 EAGLE Gerber RS-274X export*
G75*
%MOMM*%
%FSLAX34Y34*%
%LPD*%
%INSoldermask Bottom*%
%IPPOS*%
%AMOC8*
5,1,8,0,0,1.08239X$1,22.5*%
G01*
%ADD10C,2.540000*%
%ADD11C,1.711200*%
%ADD12P,1.951982X8X22.500000*%
%ADD13C,1.803400*%
%ADD14P,1.951982X8X292.500000*%
%ADD15P,1.951982X8X112.500000*%
%ADD16C,6.045200*%
%ADD17C,1.727200*%
%ADD18C,2.203200*%
%ADD19C,0.903200*%
%ADD20C,2.082800*%
%ADD21C,1.625600*%
%ADD22C,1.524000*%
%ADD23P,1.649562X8X202.500000*%
%ADD24P,1.649562X8X112.500000*%
%ADD25P,1.649562X8X292.500000*%
%ADD26P,1.869504X8X292.500000*%
%ADD27P,1.869504X8X22.500000*%
%ADD28R,2.743200X2.743200*%
%ADD29C,2.743200*%
%ADD30C,1.854200*%

G36*
X797787Y334780D02*
X797787Y334780D01*
X797859Y334778D01*
X799695Y334983D01*
X799741Y334997D01*
X799816Y335009D01*
X801577Y335569D01*
X801619Y335592D01*
X801691Y335618D01*
X803308Y336511D01*
X803346Y336541D01*
X803411Y336581D01*
X804823Y337772D01*
X804854Y337809D01*
X804910Y337861D01*
X806063Y339305D01*
X806086Y339347D01*
X806130Y339409D01*
X806979Y341050D01*
X806994Y341096D01*
X807025Y341165D01*
X807538Y342940D01*
X807543Y342988D01*
X807561Y343063D01*
X807717Y344903D01*
X807713Y344947D01*
X807717Y345012D01*
X807557Y346843D01*
X807544Y346889D01*
X807534Y346965D01*
X807020Y348729D01*
X806999Y348773D01*
X806974Y348845D01*
X806125Y350475D01*
X806096Y350513D01*
X806057Y350579D01*
X804907Y352012D01*
X804871Y352044D01*
X804820Y352101D01*
X803412Y353282D01*
X803371Y353306D01*
X803310Y353352D01*
X801698Y354236D01*
X801653Y354251D01*
X801584Y354285D01*
X799831Y354837D01*
X799784Y354843D01*
X799710Y354863D01*
X797883Y355063D01*
X797837Y355059D01*
X797768Y355065D01*
X796092Y354942D01*
X796049Y354931D01*
X795983Y354925D01*
X794353Y354514D01*
X794313Y354495D01*
X794249Y354477D01*
X792716Y353789D01*
X792679Y353764D01*
X792619Y353735D01*
X791229Y352791D01*
X791197Y352760D01*
X791143Y352722D01*
X789937Y351551D01*
X789911Y351515D01*
X789865Y351467D01*
X788881Y350105D01*
X788862Y350064D01*
X788825Y350010D01*
X788092Y348497D01*
X788080Y348454D01*
X788053Y348394D01*
X787595Y346777D01*
X787590Y346732D01*
X787574Y346668D01*
X787403Y344996D01*
X787407Y344948D01*
X787403Y344869D01*
X787569Y343197D01*
X787581Y343154D01*
X787590Y343089D01*
X788044Y341471D01*
X788063Y341430D01*
X788083Y341367D01*
X788811Y339853D01*
X788837Y339817D01*
X788867Y339758D01*
X789848Y338393D01*
X789880Y338362D01*
X789920Y338309D01*
X791122Y337135D01*
X791159Y337110D01*
X791207Y337065D01*
X792595Y336118D01*
X792636Y336100D01*
X792692Y336064D01*
X794223Y335372D01*
X794266Y335361D01*
X794327Y335335D01*
X795956Y334920D01*
X796000Y334917D01*
X796065Y334902D01*
X797740Y334776D01*
X797787Y334780D01*
G37*
G36*
X797787Y269756D02*
X797787Y269756D01*
X797859Y269754D01*
X799695Y269959D01*
X799741Y269973D01*
X799816Y269985D01*
X801577Y270545D01*
X801619Y270568D01*
X801691Y270594D01*
X803308Y271487D01*
X803346Y271517D01*
X803411Y271557D01*
X804823Y272748D01*
X804854Y272785D01*
X804910Y272837D01*
X806063Y274281D01*
X806086Y274323D01*
X806130Y274385D01*
X806979Y276026D01*
X806994Y276072D01*
X807025Y276141D01*
X807538Y277916D01*
X807543Y277964D01*
X807561Y278039D01*
X807717Y279879D01*
X807713Y279923D01*
X807717Y279988D01*
X807557Y281819D01*
X807544Y281865D01*
X807534Y281941D01*
X807020Y283705D01*
X806999Y283749D01*
X806974Y283821D01*
X806125Y285451D01*
X806096Y285489D01*
X806057Y285555D01*
X804907Y286988D01*
X804871Y287020D01*
X804820Y287077D01*
X803412Y288258D01*
X803371Y288282D01*
X803310Y288328D01*
X801698Y289212D01*
X801653Y289227D01*
X801584Y289261D01*
X799831Y289813D01*
X799784Y289819D01*
X799710Y289839D01*
X797883Y290039D01*
X797837Y290035D01*
X797768Y290041D01*
X796092Y289918D01*
X796049Y289907D01*
X795983Y289901D01*
X794353Y289490D01*
X794313Y289471D01*
X794249Y289453D01*
X792716Y288765D01*
X792679Y288740D01*
X792619Y288711D01*
X791229Y287767D01*
X791197Y287736D01*
X791143Y287698D01*
X789937Y286527D01*
X789911Y286491D01*
X789865Y286443D01*
X788881Y285081D01*
X788862Y285040D01*
X788825Y284986D01*
X788092Y283473D01*
X788080Y283430D01*
X788053Y283370D01*
X787595Y281753D01*
X787590Y281708D01*
X787574Y281644D01*
X787403Y279972D01*
X787407Y279924D01*
X787403Y279845D01*
X787569Y278173D01*
X787581Y278130D01*
X787590Y278065D01*
X788044Y276447D01*
X788063Y276406D01*
X788083Y276343D01*
X788811Y274829D01*
X788837Y274793D01*
X788867Y274734D01*
X789848Y273369D01*
X789880Y273338D01*
X789920Y273285D01*
X791122Y272111D01*
X791159Y272086D01*
X791207Y272041D01*
X792595Y271094D01*
X792636Y271076D01*
X792692Y271040D01*
X794223Y270348D01*
X794266Y270337D01*
X794327Y270311D01*
X795956Y269896D01*
X796000Y269893D01*
X796065Y269878D01*
X797740Y269752D01*
X797787Y269756D01*
G37*
D10*
X102108Y959104D02*
X102108Y918972D01*
X125476Y895604D01*
X261620Y895604D01*
X351028Y893572D02*
X351028Y784860D01*
X221996Y655828D01*
X221996Y425196D01*
X173228Y376428D01*
X58928Y820928D02*
X42164Y820928D01*
X58928Y820928D02*
X120904Y758952D01*
X120904Y703580D01*
X64008Y646684D01*
X64008Y569976D01*
X85344Y548640D01*
X110236Y548640D01*
X111252Y461264D02*
X111252Y297688D01*
X44704Y231140D01*
X44704Y142240D01*
X82804Y104140D01*
X169672Y102108D02*
X169672Y145288D01*
D11*
X316230Y32560D03*
X341630Y32560D03*
D12*
X619760Y885190D03*
D13*
X594360Y885190D03*
D14*
X720090Y948690D03*
D13*
X720090Y974090D03*
D15*
X720090Y913130D03*
D13*
X720090Y887730D03*
D14*
X970280Y910590D03*
D13*
X970280Y935990D03*
D11*
X894540Y426720D03*
X894540Y452120D03*
X894540Y477520D03*
X894540Y502920D03*
X894540Y528320D03*
D16*
X45720Y322580D03*
X952500Y322580D03*
X45720Y717550D03*
X949960Y715010D03*
D17*
X579120Y960120D02*
X579120Y975360D01*
X604520Y975360D02*
X604520Y960120D01*
X629920Y960120D02*
X629920Y975360D01*
D18*
X262300Y905000D02*
X262300Y885000D01*
X347300Y885000D02*
X347300Y905000D01*
D19*
X959440Y784430D03*
X959440Y825930D03*
D11*
X431800Y962200D03*
X457200Y962200D03*
D20*
X314960Y266700D03*
X289560Y266700D03*
X314960Y292100D03*
X289560Y292100D03*
X314960Y317500D03*
X289560Y317500D03*
D21*
X801370Y904640D03*
X801370Y954640D03*
D11*
X893270Y568960D03*
X893270Y594360D03*
X893270Y619760D03*
X893270Y645160D03*
X965660Y429260D03*
X965660Y454660D03*
X965660Y480060D03*
X965660Y505460D03*
X965660Y125730D03*
X965660Y151130D03*
X965660Y193040D03*
X965660Y218440D03*
X965660Y58420D03*
X965660Y83820D03*
X619760Y40465D03*
X594360Y40465D03*
X685800Y40465D03*
X660400Y40465D03*
D22*
X696722Y124460D02*
X709930Y124460D01*
X709930Y99060D02*
X696722Y99060D01*
X786130Y99060D02*
X799338Y99060D01*
X799338Y124460D02*
X786130Y124460D01*
X708660Y182880D02*
X695452Y182880D01*
X695452Y157480D02*
X708660Y157480D01*
X784860Y157480D02*
X798068Y157480D01*
X798068Y182880D02*
X784860Y182880D01*
D18*
X169500Y111950D02*
X169500Y91950D01*
X84500Y91950D02*
X84500Y111950D01*
D11*
X965660Y544830D03*
X965660Y570230D03*
X965660Y595630D03*
X965660Y621030D03*
X965660Y646430D03*
D23*
X830580Y137160D03*
X843280Y118110D03*
X855980Y137160D03*
D24*
X223520Y853440D03*
X204470Y840740D03*
X223520Y828040D03*
X711200Y325120D03*
X692150Y312420D03*
X711200Y299720D03*
D25*
X457200Y706120D03*
X476250Y718820D03*
X457200Y731520D03*
X508000Y647700D03*
X527050Y660400D03*
X508000Y673100D03*
X411480Y706120D03*
X430530Y718820D03*
X411480Y731520D03*
X411480Y647700D03*
X430530Y660400D03*
X411480Y673100D03*
X457200Y647700D03*
X476250Y660400D03*
X457200Y673100D03*
X508000Y706120D03*
X527050Y718820D03*
X508000Y731520D03*
D23*
X828040Y208280D03*
X840740Y189230D03*
X853440Y208280D03*
D26*
X171450Y375920D03*
X171450Y147320D03*
D27*
X152400Y692150D03*
X381000Y692150D03*
D28*
X101650Y961500D03*
D29*
X41650Y941500D03*
X41650Y819500D03*
X161650Y819500D03*
X161650Y941500D03*
D11*
X251460Y32560D03*
X276860Y32560D03*
D18*
X118300Y462370D02*
X98300Y462370D01*
X98300Y547370D02*
X118300Y547370D01*
X118300Y632370D02*
X98300Y632370D01*
D30*
X488950Y156210D03*
X438150Y156210D03*
D17*
X554990Y31750D02*
X554990Y16510D01*
X529590Y16510D02*
X529590Y31750D01*
X504190Y31750D02*
X504190Y16510D01*
X478790Y16510D02*
X478790Y31750D01*
X453390Y31750D02*
X453390Y16510D01*
X427990Y16510D02*
X427990Y31750D01*
M02*
