G04 EAGLE Gerber RS-274X export*
G75*
%MOMM*%
%FSLAX34Y34*%
%LPD*%
%INSoldermask Top*%
%IPPOS*%
%AMOC8*
5,1,8,0,0,1.08239X$1,22.5*%
G01*
%ADD10C,2.540000*%
%ADD11C,1.711200*%
%ADD12P,1.951982X8X22.500000*%
%ADD13C,1.803400*%
%ADD14R,1.503200X1.703200*%
%ADD15P,1.951982X8X292.500000*%
%ADD16R,1.703200X1.503200*%
%ADD17R,2.203200X2.403200*%
%ADD18P,1.951982X8X112.500000*%
%ADD19R,2.753200X2.903200*%
%ADD20R,2.003200X2.603200*%
%ADD21R,2.603200X2.003200*%
%ADD22R,2.103200X3.603200*%
%ADD23C,6.045200*%
%ADD24C,1.727200*%
%ADD25C,2.203200*%
%ADD26R,1.553200X0.603200*%
%ADD27R,2.103200X2.003200*%
%ADD28R,2.103200X2.103200*%
%ADD29C,0.903200*%
%ADD30C,2.082800*%
%ADD31R,0.838200X1.473200*%
%ADD32C,1.625600*%
%ADD33R,1.403200X1.403200*%
%ADD34C,1.524000*%
%ADD35P,1.649562X8X202.500000*%
%ADD36P,1.649562X8X112.500000*%
%ADD37P,1.649562X8X292.500000*%
%ADD38R,1.503200X1.803200*%
%ADD39R,1.803200X1.503200*%
%ADD40P,1.869504X8X292.500000*%
%ADD41P,1.869504X8X22.500000*%
%ADD42R,2.743200X2.743200*%
%ADD43C,2.743200*%
%ADD44R,1.503200X1.753200*%
%ADD45R,0.403200X1.203200*%
%ADD46R,1.203200X0.403200*%
%ADD47R,0.903200X1.303200*%
%ADD48R,2.203200X3.003200*%
%ADD49R,0.900000X1.300000*%
%ADD50R,0.812800X2.108200*%
%ADD51R,0.803200X2.108200*%
%ADD52R,1.403200X0.803200*%
%ADD53R,0.803200X1.403200*%
%ADD54R,0.863600X2.235200*%
%ADD55C,1.854200*%
%ADD56R,2.103200X1.503200*%
%ADD57R,2.003200X2.903200*%

G36*
X797758Y339860D02*
X797758Y339860D01*
X797849Y339859D01*
X798813Y339990D01*
X798861Y340006D01*
X798950Y340025D01*
X799861Y340367D01*
X799904Y340393D01*
X799988Y340432D01*
X800799Y340969D01*
X800835Y341004D01*
X800908Y341060D01*
X801580Y341764D01*
X801608Y341806D01*
X801666Y341877D01*
X802164Y342713D01*
X802165Y342716D01*
X802167Y342718D01*
X802173Y342737D01*
X802182Y342760D01*
X802222Y342842D01*
X802522Y343768D01*
X802529Y343818D01*
X802551Y343907D01*
X802637Y344876D01*
X802633Y344923D01*
X802636Y344998D01*
X802534Y345974D01*
X802520Y346022D01*
X802504Y346112D01*
X802188Y347041D01*
X802164Y347085D01*
X802127Y347170D01*
X801613Y348005D01*
X801579Y348042D01*
X801525Y348117D01*
X800837Y348817D01*
X800796Y348846D01*
X800727Y348906D01*
X799900Y349435D01*
X799854Y349454D01*
X799773Y349498D01*
X798850Y349830D01*
X798800Y349838D01*
X798711Y349863D01*
X797737Y349981D01*
X797687Y349978D01*
X797601Y349982D01*
X796599Y349887D01*
X796550Y349873D01*
X796460Y349857D01*
X795504Y349541D01*
X795459Y349517D01*
X795375Y349482D01*
X794514Y348960D01*
X794476Y348927D01*
X794401Y348874D01*
X793677Y348174D01*
X793648Y348133D01*
X793587Y348064D01*
X793037Y347221D01*
X793017Y347175D01*
X792973Y347094D01*
X792625Y346150D01*
X792616Y346100D01*
X792591Y346012D01*
X792461Y345014D01*
X792463Y344971D01*
X792462Y344845D01*
X792601Y343834D01*
X792617Y343786D01*
X792636Y343696D01*
X792998Y342741D01*
X793024Y342698D01*
X793063Y342614D01*
X793627Y341764D01*
X793662Y341727D01*
X793719Y341655D01*
X794459Y340951D01*
X794501Y340923D01*
X794572Y340865D01*
X795450Y340344D01*
X795497Y340326D01*
X795579Y340285D01*
X796551Y339972D01*
X796601Y339965D01*
X796690Y339944D01*
X797708Y339855D01*
X797758Y339860D01*
G37*
G36*
X797758Y274836D02*
X797758Y274836D01*
X797849Y274835D01*
X798813Y274966D01*
X798861Y274982D01*
X798950Y275001D01*
X799861Y275343D01*
X799904Y275369D01*
X799988Y275408D01*
X800799Y275945D01*
X800835Y275980D01*
X800908Y276036D01*
X801580Y276740D01*
X801608Y276782D01*
X801666Y276853D01*
X802164Y277689D01*
X802165Y277692D01*
X802167Y277694D01*
X802173Y277713D01*
X802182Y277736D01*
X802222Y277818D01*
X802522Y278744D01*
X802529Y278794D01*
X802551Y278883D01*
X802637Y279852D01*
X802633Y279899D01*
X802636Y279974D01*
X802534Y280950D01*
X802520Y280998D01*
X802504Y281088D01*
X802188Y282017D01*
X802164Y282061D01*
X802127Y282146D01*
X801613Y282981D01*
X801579Y283018D01*
X801525Y283093D01*
X800837Y283793D01*
X800796Y283822D01*
X800727Y283882D01*
X799900Y284411D01*
X799854Y284430D01*
X799773Y284474D01*
X798850Y284806D01*
X798800Y284814D01*
X798711Y284839D01*
X797737Y284957D01*
X797687Y284954D01*
X797601Y284958D01*
X796599Y284863D01*
X796550Y284849D01*
X796460Y284833D01*
X795504Y284517D01*
X795459Y284493D01*
X795375Y284458D01*
X794514Y283936D01*
X794476Y283903D01*
X794401Y283850D01*
X793677Y283150D01*
X793648Y283109D01*
X793587Y283040D01*
X793037Y282197D01*
X793017Y282151D01*
X792973Y282070D01*
X792625Y281126D01*
X792616Y281076D01*
X792591Y280988D01*
X792461Y279990D01*
X792463Y279947D01*
X792462Y279821D01*
X792601Y278810D01*
X792617Y278762D01*
X792636Y278672D01*
X792998Y277717D01*
X793024Y277674D01*
X793063Y277590D01*
X793627Y276740D01*
X793662Y276703D01*
X793719Y276631D01*
X794459Y275927D01*
X794501Y275899D01*
X794572Y275841D01*
X795450Y275320D01*
X795497Y275302D01*
X795579Y275261D01*
X796551Y274948D01*
X796601Y274941D01*
X796690Y274920D01*
X797708Y274831D01*
X797758Y274836D01*
G37*
D10*
X170180Y97028D02*
X169164Y96012D01*
X260096Y894588D02*
X260604Y895096D01*
D11*
X316230Y32560D03*
X341630Y32560D03*
D12*
X619760Y885190D03*
D13*
X594360Y885190D03*
D14*
X486004Y193548D03*
X467004Y193548D03*
D15*
X720090Y948690D03*
D13*
X720090Y974090D03*
D16*
X563880Y932790D03*
X563880Y913790D03*
X853440Y986130D03*
X853440Y967130D03*
D17*
X296940Y457200D03*
X266940Y457200D03*
D14*
X318160Y833120D03*
X337160Y833120D03*
X318160Y855980D03*
X337160Y855980D03*
D18*
X720090Y913130D03*
D13*
X720090Y887730D03*
D14*
X884580Y849630D03*
X903580Y849630D03*
D15*
X970280Y910590D03*
D13*
X970280Y935990D03*
D16*
X551180Y314300D03*
X551180Y295300D03*
D14*
X595020Y317500D03*
X614020Y317500D03*
D16*
X495300Y118720D03*
X495300Y99720D03*
X434340Y118720D03*
X434340Y99720D03*
X314960Y164440D03*
X314960Y145440D03*
X337820Y164440D03*
X337820Y145440D03*
D14*
X511200Y568960D03*
X530200Y568960D03*
X573380Y546100D03*
X554380Y546100D03*
X530200Y614680D03*
X511200Y614680D03*
X508660Y477520D03*
X527660Y477520D03*
X570332Y477520D03*
X551332Y477520D03*
D16*
X528320Y314300D03*
X528320Y295300D03*
D14*
X530200Y523240D03*
X511200Y523240D03*
X65430Y187960D03*
X84430Y187960D03*
D19*
X43180Y152400D03*
X106680Y152400D03*
D14*
X602640Y650240D03*
X621640Y650240D03*
X602640Y673100D03*
X621640Y673100D03*
X708000Y711200D03*
X689000Y711200D03*
D16*
X812800Y711860D03*
X812800Y730860D03*
D14*
X770280Y711200D03*
X789280Y711200D03*
X430936Y347980D03*
X449936Y347980D03*
X430936Y370840D03*
X449936Y370840D03*
D17*
X296940Y363220D03*
X266940Y363220D03*
D16*
X378460Y247040D03*
X378460Y266040D03*
X401320Y247040D03*
X401320Y266040D03*
D14*
X486004Y214884D03*
X467004Y214884D03*
D20*
X585540Y932180D03*
X626040Y932180D03*
D21*
X289560Y800170D03*
X289560Y840670D03*
X327660Y469830D03*
X327660Y429330D03*
D20*
X906710Y170180D03*
X866210Y170180D03*
X906710Y93980D03*
X866210Y93980D03*
X857320Y750570D03*
X897820Y750570D03*
X54680Y217170D03*
X95180Y217170D03*
D21*
X149860Y528250D03*
X149860Y487750D03*
X182880Y528250D03*
X182880Y487750D03*
D11*
X894540Y426720D03*
X894540Y452120D03*
X894540Y477520D03*
X894540Y502920D03*
X894540Y528320D03*
D22*
X512376Y215900D03*
X551376Y215900D03*
D23*
X45720Y322580D03*
X952500Y322580D03*
X45720Y717550D03*
X949960Y715010D03*
D24*
X579120Y960120D02*
X579120Y975360D01*
X604520Y975360D02*
X604520Y960120D01*
X629920Y960120D02*
X629920Y975360D01*
D25*
X262300Y905000D02*
X262300Y885000D01*
X347300Y885000D02*
X347300Y905000D01*
D26*
X957190Y805180D03*
X957190Y811680D03*
X957190Y798680D03*
X957190Y792180D03*
X957190Y818180D03*
D27*
X983940Y845180D03*
D28*
X983940Y817180D03*
X983940Y793180D03*
D27*
X983940Y765180D03*
D29*
X959440Y784430D03*
X959440Y825930D03*
D11*
X431800Y962200D03*
X457200Y962200D03*
D30*
X314960Y266700D03*
X289560Y266700D03*
X314960Y292100D03*
X289560Y292100D03*
X314960Y317500D03*
X289560Y317500D03*
D31*
X455168Y919480D03*
X447040Y919480D03*
X438912Y919480D03*
D32*
X801370Y904640D03*
X801370Y954640D03*
D11*
X893270Y568960D03*
X893270Y594360D03*
X893270Y619760D03*
X893270Y645160D03*
X965660Y429260D03*
X965660Y454660D03*
X965660Y480060D03*
X965660Y505460D03*
D33*
X324780Y386080D03*
X345780Y386080D03*
X548640Y126660D03*
X548640Y147660D03*
X256540Y853780D03*
X256540Y832780D03*
D11*
X965660Y125730D03*
X965660Y151130D03*
X965660Y193040D03*
X965660Y218440D03*
X965660Y58420D03*
X965660Y83820D03*
X619760Y40465D03*
X594360Y40465D03*
X685800Y40465D03*
X660400Y40465D03*
D34*
X696722Y124460D02*
X709930Y124460D01*
X709930Y99060D02*
X696722Y99060D01*
X786130Y99060D02*
X799338Y99060D01*
X799338Y124460D02*
X786130Y124460D01*
X708660Y182880D02*
X695452Y182880D01*
X695452Y157480D02*
X708660Y157480D01*
X784860Y157480D02*
X798068Y157480D01*
X798068Y182880D02*
X784860Y182880D01*
D25*
X169500Y111950D02*
X169500Y91950D01*
X84500Y91950D02*
X84500Y111950D01*
D11*
X965660Y544830D03*
X965660Y570230D03*
X965660Y595630D03*
X965660Y621030D03*
X965660Y646430D03*
D35*
X830580Y137160D03*
X843280Y118110D03*
X855980Y137160D03*
D36*
X223520Y853440D03*
X204470Y840740D03*
X223520Y828040D03*
X711200Y325120D03*
X692150Y312420D03*
X711200Y299720D03*
D37*
X457200Y706120D03*
X476250Y718820D03*
X457200Y731520D03*
X508000Y647700D03*
X527050Y660400D03*
X508000Y673100D03*
X411480Y706120D03*
X430530Y718820D03*
X411480Y731520D03*
X411480Y647700D03*
X430530Y660400D03*
X411480Y673100D03*
X457200Y647700D03*
X476250Y660400D03*
X457200Y673100D03*
X508000Y706120D03*
X527050Y718820D03*
X508000Y731520D03*
D35*
X828040Y208280D03*
X840740Y189230D03*
X853440Y208280D03*
D38*
X821080Y94488D03*
X840080Y94488D03*
X341020Y314960D03*
X360020Y314960D03*
X360020Y292100D03*
X341020Y292100D03*
D39*
X561340Y268580D03*
X561340Y249580D03*
D38*
X474320Y119380D03*
X455320Y119380D03*
D39*
X551180Y357480D03*
X551180Y338480D03*
X528320Y357480D03*
X528320Y338480D03*
D38*
X595020Y342900D03*
X614020Y342900D03*
D39*
X548640Y184760D03*
X548640Y165760D03*
D38*
X371500Y33020D03*
X390500Y33020D03*
X546760Y55880D03*
X565760Y55880D03*
D39*
X647700Y194920D03*
X647700Y175920D03*
D38*
X546760Y78740D03*
X565760Y78740D03*
X511200Y591820D03*
X530200Y591820D03*
X554380Y591820D03*
X573380Y591820D03*
X554380Y568960D03*
X573380Y568960D03*
X511200Y500380D03*
X530200Y500380D03*
X554380Y523240D03*
X573380Y523240D03*
X554380Y500380D03*
X573380Y500380D03*
X382880Y520700D03*
X363880Y520700D03*
X382880Y474980D03*
X363880Y474980D03*
D39*
X406400Y475640D03*
X406400Y494640D03*
X927100Y894690D03*
X927100Y875690D03*
D38*
X363880Y497840D03*
X382880Y497840D03*
D40*
X171450Y375920D03*
X171450Y147320D03*
D38*
X664820Y650240D03*
X645820Y650240D03*
X664820Y627380D03*
X645820Y627380D03*
X664820Y695960D03*
X645820Y695960D03*
X664820Y673100D03*
X645820Y673100D03*
X689000Y734060D03*
X708000Y734060D03*
X546760Y660400D03*
X565760Y660400D03*
X488340Y759460D03*
X507340Y759460D03*
X488340Y782320D03*
X507340Y782320D03*
D39*
X927100Y936600D03*
X927100Y917600D03*
D41*
X152400Y692150D03*
X381000Y692150D03*
D38*
X363880Y543560D03*
X382880Y543560D03*
X382880Y566420D03*
X363880Y566420D03*
X382880Y612140D03*
X363880Y612140D03*
X382880Y589280D03*
X363880Y589280D03*
D39*
X406400Y586080D03*
X406400Y567080D03*
D38*
X770280Y734060D03*
X789280Y734060D03*
X770280Y779780D03*
X789280Y779780D03*
X789280Y756920D03*
X770280Y756920D03*
X546760Y718820D03*
X565760Y718820D03*
X664820Y718820D03*
X645820Y718820D03*
X823620Y167640D03*
X842620Y167640D03*
D39*
X670560Y194920D03*
X670560Y175920D03*
X886460Y120040D03*
X886460Y139040D03*
X886460Y196240D03*
X886460Y215240D03*
D38*
X901040Y398780D03*
X882040Y398780D03*
X901040Y375920D03*
X882040Y375920D03*
X901040Y353060D03*
X882040Y353060D03*
D39*
X205740Y801980D03*
X205740Y782980D03*
X259080Y793140D03*
X259080Y812140D03*
D38*
X887070Y778510D03*
X868070Y778510D03*
X887070Y801370D03*
X868070Y801370D03*
X325780Y406400D03*
X344780Y406400D03*
X868070Y824230D03*
X887070Y824230D03*
D42*
X101650Y961500D03*
D43*
X41650Y941500D03*
X41650Y819500D03*
X161650Y819500D03*
X161650Y941500D03*
D44*
X629560Y214250D03*
X629560Y293750D03*
X584560Y214250D03*
X584560Y293750D03*
D11*
X251460Y32560D03*
X276860Y32560D03*
D25*
X118300Y462370D02*
X98300Y462370D01*
X98300Y547370D02*
X118300Y547370D01*
X118300Y632370D02*
X98300Y632370D01*
D45*
X436050Y238210D03*
X441050Y238210D03*
X446050Y238210D03*
X451050Y238210D03*
X456050Y238210D03*
X461050Y238210D03*
X466050Y238210D03*
X471050Y238210D03*
X476050Y238210D03*
X481050Y238210D03*
X486050Y238210D03*
X491050Y238210D03*
D46*
X508550Y255710D03*
X508550Y260710D03*
X508550Y265710D03*
X508550Y270710D03*
X508550Y275710D03*
X508550Y280710D03*
X508550Y285710D03*
X508550Y290710D03*
X508550Y295710D03*
X508550Y300710D03*
X508550Y305710D03*
X508550Y310710D03*
D45*
X491050Y328210D03*
X486050Y328210D03*
X481050Y328210D03*
X476050Y328210D03*
X471050Y328210D03*
X466050Y328210D03*
X461050Y328210D03*
X456050Y328210D03*
X451050Y328210D03*
X446050Y328210D03*
X441050Y328210D03*
X436050Y328210D03*
D46*
X418550Y310710D03*
X418550Y305710D03*
X418550Y300710D03*
X418550Y295710D03*
X418550Y290710D03*
X418550Y285710D03*
X418550Y280710D03*
X418550Y275710D03*
X418550Y270710D03*
X418550Y265710D03*
X418550Y260710D03*
X418550Y255710D03*
D47*
X296940Y393980D03*
X266940Y393980D03*
D48*
X281940Y420480D03*
D49*
X281940Y393980D03*
D50*
X519430Y383480D03*
X532130Y383480D03*
X544830Y383480D03*
X557530Y383480D03*
D51*
X557530Y439480D03*
X544830Y439480D03*
X532130Y439480D03*
X519430Y439480D03*
D52*
X431740Y585470D03*
X431740Y572770D03*
X431740Y560070D03*
X431740Y547370D03*
X431740Y534670D03*
X431740Y521970D03*
X431740Y509270D03*
X487740Y509270D03*
X487740Y521970D03*
X487740Y534670D03*
X487740Y547370D03*
X487740Y560070D03*
X487740Y572770D03*
X487740Y585470D03*
D53*
X699770Y634940D03*
X712470Y634940D03*
X725170Y634940D03*
X737870Y634940D03*
X750570Y634940D03*
X763270Y634940D03*
X775970Y634940D03*
X775970Y690940D03*
X763270Y690940D03*
X750570Y690940D03*
X737870Y690940D03*
X725170Y690940D03*
X712470Y690940D03*
X699770Y690940D03*
D54*
X866140Y877316D03*
X866140Y938784D03*
X878840Y877316D03*
X891540Y877316D03*
X878840Y938784D03*
X891540Y938784D03*
X904240Y877316D03*
X904240Y938784D03*
D55*
X488950Y156210D03*
X438150Y156210D03*
D56*
X359920Y179900D03*
X359920Y124900D03*
X391920Y124900D03*
X391920Y179900D03*
D39*
X708660Y614020D03*
X708660Y595020D03*
X731520Y614020D03*
X731520Y595020D03*
X777240Y614020D03*
X777240Y595020D03*
D16*
X825500Y672440D03*
X825500Y653440D03*
X802640Y653440D03*
X802640Y672440D03*
D38*
X774040Y538480D03*
X755040Y538480D03*
X714400Y538480D03*
X733400Y538480D03*
D24*
X554990Y31750D02*
X554990Y16510D01*
X529590Y16510D02*
X529590Y31750D01*
X504190Y31750D02*
X504190Y16510D01*
X478790Y16510D02*
X478790Y31750D01*
X453390Y31750D02*
X453390Y16510D01*
X427990Y16510D02*
X427990Y31750D01*
D38*
X692760Y571500D03*
X673760Y571500D03*
X809600Y571500D03*
X790600Y571500D03*
D14*
X530200Y546100D03*
X511200Y546100D03*
D16*
X406400Y524916D03*
X406400Y543916D03*
X754380Y614020D03*
X754380Y595020D03*
X739140Y711860D03*
X739140Y730860D03*
D21*
X840740Y882580D03*
X840740Y842080D03*
D39*
X405130Y415950D03*
X405130Y434950D03*
X382270Y415950D03*
X382270Y434950D03*
D57*
X932590Y972820D03*
X888590Y972820D03*
D39*
X800100Y614020D03*
X800100Y595020D03*
X685800Y614020D03*
X685800Y595020D03*
M02*
